<svg id="Layer_1" data-name="Layer 1" xmlns="http://www.w3.org/2000/svg" viewBox="0 0 512 512"><title>reputation-management</title><g id="reputation-management"><g id="label"><path d="M256,512C114.84,512,0,397.16,0,256S114.84,0,256,0,512,114.84,512,256,397.16,512,256,512Zm0-490.54C126.68,21.46,21.46,126.67,21.46,256S126.68,490.54,256,490.54,490.54,385.32,490.54,256,385.32,21.46,256,21.46Z" fill="#34495e"/></g><path id="reputation-management-2" data-name="reputation-management" d="M196.11,164.82c0-34.47,26.81-62.42,59.89-62.42s59.9,27.95,59.9,62.42-26.83,62.43-59.9,62.43S196.11,199.29,196.11,164.82Zm28.19,77.51,23.39,21.21-14.56,43.51,19.12,45.61,21.34-46.34-15.94-42.79,24.76-21.21ZM394,348c-1.21-20.62-4.76-42.49-15.89-60-11.7-18.41-42.71-34.91-62.63-40.51l-64,127.25L197.09,245.28c-44.88,8.84-60.17,37.14-62.59,41.92-.21.3-.45.51-.64.8-11.14,17.54-14.69,39.4-15.9,60-.7,11.65,0,61.57,0,61.57H394S394.74,359.67,394,348Z" fill="#34495e"/></g></svg>